<?xml version="1.0" standalone="no"?> <!DOCTYPE svg PUBLIC "-//W3C//DTD SVG 20010904//EN" "http://www.w3.org/TR/2001/REC-SVG-20010904/DTD/svg10.dtd"> <svg version="1.0" xmlns="http://www.w3.org/2000/svg" width="432.000000pt" height="433.000000pt" viewBox="0 0 432.000000 433.000000" preserveAspectRatio="xMidYMid meet"> <g transform="translate(0.000000,433.000000) scale(0.100000,-0.100000)" fill="#434544" stroke="none"> <path d="M1065 3634 c-86 -45 -132 -89 -153 -147 -27 -73 -75 -369 -67 -410 23 -103 110 -197 206 -220 23 -6 208 -38 496 -87 128 -21 142 -28 178 -74 l26 -34 -30 -183 c-17 -101 -50 -292 -75 -424 -25 -132 -55 -298 -67 -370 -12 -71 -28 -145 -35 -164 l-14 -34 -76 6 c-94 7 -124 24 -124 72 0 31 99 639 119 725 7 33 5 44 -15 74 -28 41 -46 48 -229 81 -207 38 -290 43 -347 17 -52 -23 -123 -83 -143 -122 -29 -56 -169 -852 -161 -914 8 -64 79 -196 144 -267 96 -104 101 -106 623 -198 251 -45 484 -81 517 -81 50 0 73 7 138 39 93 47 187 120 227 176 15 23 34 65 42 95 13 51 290 1603 334 1879 22 130 20 151 -12 216 -56 114 -111 149 -287 179 -52 9 -311 54 -575 101 -599 105 -576 102 -640 69z"/> <path d="M2973 3301 c-87 -41 -138 -96 -152 -160 -10 -45 -61 -547 -108 -1057 l-17 -182 34 -66 c36 -71 91 -129 145 -152 55 -22 281 -57 330 -50 50 8 148 67 188 115 35 42 51 97 202 691 138 542 145 583 106 664 -12 24 -43 64 -70 89 -53 49 -34 44 -321 96 -256 47 -264 47 -337 12z"/> <path d="M2723 1424 c-29 -14 -70 -42 -93 -62 -48 -44 -64 -91 -81 -251 -12 -111 -7 -187 16 -231 21 -42 93 -128 115 -140 36 -19 253 -60 319 -60 59 0 70 4 128 41 35 23 74 55 88 71 28 33 62 136 96 284 l22 101 -21 44 c-34 68 -88 137 -123 154 -32 17 -329 75 -383 75 -18 0 -55 -12 -83 -26z"/> </g> </svg>